<svg width="1200" height="250" viewBox="0 0 1200 250" fill="none" xmlns="http://www.w3.org/2000/svg">
<g clip-path="url(#clip0_3_40)">
<mask id="mask0_3_40" style="mask-type:alpha" maskUnits="userSpaceOnUse" x="0" y="0" width="1200" height="250">
<path d="M1200 0H0V250H1200V0Z" fill="url(#paint0_radial_3_40)"/>
<path d="M1200 0H0V250H1200V0Z" fill="url(#paint1_linear_3_40)"/>
</mask>
<g mask="url(#mask0_3_40)">
<g opacity="0.6">
<path d="M201.41 0H263.765C282.342 0 297.425 15.1068 297.425 33.7141V216.286C297.425 234.893 282.342 250 263.765 250H230.104V28.9241C230.104 23.213 228.449 17.6861 225.506 13.2646C221.643 7.3692 215.941 2.94768 208.952 1.10538C206.56 0.36846 203.985 0 201.41 0Z" fill="url(#paint2_linear_3_40)" fill-opacity="0.7"/>
<path d="M443.102 20.6337H487.799L556.223 138.725L624.647 20.6337H668.976V228.998H633.109V72.955L566.156 188.836H545.555L478.97 72.955V228.998H443.102V20.6337Z" fill="url(#paint3_linear_3_40)" fill-opacity="0.7"/>
<path d="M692.888 151.99C692.888 106.116 728.203 71.297 775.291 71.297C822.379 71.297 857.695 106.116 857.695 151.99C857.695 197.863 822.195 232.682 775.291 232.682C728.387 232.682 692.888 197.863 692.888 151.99ZM822.563 151.99C822.563 124.724 802.33 103.906 775.291 103.906C748.253 103.906 727.652 124.724 727.652 151.99C727.652 179.256 748.069 200.074 775.291 200.074C802.514 200.074 822.563 179.256 822.563 151.99Z" fill="url(#paint4_linear_3_40)" fill-opacity="0.7"/>
<path d="M885.837 181.651V105.932H859.902V75.1658H875.536C883.446 75.1658 887.676 70.9285 887.676 63.0066V33.3456H919.681V74.9816H957.756V105.748H919.681V176.124C919.681 189.757 928.142 197.863 942.305 197.863H957.756V228.998H937.523C904.047 228.998 886.021 212.049 886.021 181.651" fill="url(#paint5_linear_3_40)" fill-opacity="0.7"/>
<path d="M977.621 28.7399C977.621 16.3965 987.002 7.3692 998.958 7.3692C1010.91 7.3692 1020.66 16.3965 1020.66 28.7399C1020.66 41.0833 1011.28 50.1105 998.958 50.1105C986.634 50.1105 977.621 40.7148 977.621 28.7399ZM982.219 74.9816H1016.06V228.998H982.219V74.9816Z" fill="url(#paint6_linear_3_40)" fill-opacity="0.7"/>
<path d="M1036.66 151.99C1036.66 106.116 1068.85 71.297 1112.26 71.297C1155.67 71.297 1153.65 80.8769 1166.16 96.9049V74.7973H1200V228.814H1166.16V206.706C1153.46 222.734 1134.89 232.314 1112.26 232.314C1068.85 232.314 1036.66 197.494 1036.66 151.621M1166.34 151.99C1166.34 124.724 1146.11 103.906 1119.07 103.906C1092.03 103.906 1071.43 124.724 1071.43 151.99C1071.43 179.256 1091.66 200.074 1119.07 200.074C1146.47 200.074 1166.34 179.256 1166.34 151.99Z" fill="url(#paint7_linear_3_40)" fill-opacity="0.7"/>
<path d="M143.838 164.702L162.6 191.599L169.221 200.995L195.524 238.578C195.708 238.946 196.076 239.315 196.26 239.683C196.26 239.867 196.628 240.052 196.812 240.42C201.41 246.5 208.584 249.816 215.757 249.816H253.832L239.485 229.182L220.723 202.284L187.431 154.753L187.063 154.2C181.913 147.2 173.636 143.515 165.359 144.436C161.496 144.805 157.633 146.094 154.139 148.489C148.253 152.358 144.758 158.438 143.838 164.886" fill="url(#paint8_linear_3_40)" fill-opacity="0.7"/>
<path d="M167.934 144.252L153.587 164.886L101.717 239.315C100.061 240.052 98.222 240.236 96.3826 240.236C85.7143 240.236 77.2532 231.577 77.2532 221.076V202.1L83.691 192.889L84.2428 192.152L109.994 155.306C110.178 154.937 110.546 154.569 110.73 154.2C110.73 154.016 111.097 153.832 111.281 153.464C115.88 147.384 123.053 144.068 130.227 144.068H168.302L167.934 144.252Z" fill="url(#paint9_linear_3_40)" fill-opacity="0.7"/>
<path d="M95.8308 249.816H33.6603C15.0828 249.816 0 234.893 0 216.286V33.7141C0 15.1068 15.0828 0 33.6603 0H67.3207V220.892C67.3207 226.603 68.9761 232.13 71.9191 236.551C75.7817 242.447 81.4837 246.868 88.4733 248.71C90.8645 249.447 93.4396 249.816 96.0147 249.816" fill="url(#paint10_linear_3_40)" fill-opacity="0.7"/>
<path d="M153.587 85.1142L134.825 58.2167L128.204 48.8209L101.901 11.238C101.717 10.8696 101.349 10.5011 101.165 10.1326C101.165 9.94842 100.797 9.76419 100.613 9.39573C96.0147 3.31614 88.8412 0 81.6677 0H43.5929L57.9399 20.6338L76.7014 47.5313L109.994 95.0626L110.362 95.6153C115.512 102.616 123.789 106.301 132.066 105.38C135.929 105.011 139.792 103.721 143.286 101.326C149.172 97.4576 152.667 91.378 153.587 84.93" fill="url(#paint11_linear_3_40)" fill-opacity="0.7"/>
<path d="M129.491 105.748L143.838 85.1142L195.708 10.6853C197.364 9.94842 199.203 9.76419 201.042 9.76419C211.711 9.76419 220.172 18.423 220.172 28.9241V47.7156L213.734 56.927L213.182 57.664L187.431 94.5099C187.247 94.8784 186.879 95.2469 186.695 95.6153C186.695 95.7996 186.327 95.9838 186.143 96.3522C181.545 102.432 174.372 105.748 167.198 105.748H129.123H129.491Z" fill="url(#paint12_linear_3_40)" fill-opacity="0.7"/>
<path d="M201.41 0H263.765C282.342 0 297.425 15.1068 297.425 33.7141V216.286C297.425 234.893 282.342 250 263.765 250H230.104V28.9241C230.104 23.213 228.449 17.6861 225.506 13.2646C221.643 7.3692 215.941 2.94768 208.952 1.10538C206.56 0.36846 203.985 0 201.41 0Z" fill="url(#paint13_radial_3_40)"/>
<path d="M443.102 20.6337H487.799L556.223 138.725L624.647 20.6337H668.976V228.998H633.109V72.955L566.156 188.836H545.555L478.97 72.955V228.998H443.102V20.6337Z" fill="url(#paint14_radial_3_40)"/>
<path d="M692.888 151.99C692.888 106.116 728.203 71.297 775.291 71.297C822.379 71.297 857.695 106.116 857.695 151.99C857.695 197.863 822.195 232.682 775.291 232.682C728.387 232.682 692.888 197.863 692.888 151.99ZM822.563 151.99C822.563 124.724 802.33 103.906 775.291 103.906C748.253 103.906 727.652 124.724 727.652 151.99C727.652 179.256 748.069 200.074 775.291 200.074C802.514 200.074 822.563 179.256 822.563 151.99Z" fill="url(#paint15_radial_3_40)"/>
<path d="M885.837 181.651V105.932H859.902V75.1658H875.536C883.446 75.1658 887.676 70.9285 887.676 63.0066V33.3456H919.681V74.9816H957.756V105.748H919.681V176.124C919.681 189.757 928.142 197.863 942.305 197.863H957.756V228.998H937.523C904.047 228.998 886.021 212.049 886.021 181.651" fill="url(#paint16_radial_3_40)"/>
<path d="M977.621 28.7399C977.621 16.3965 987.002 7.3692 998.958 7.3692C1010.91 7.3692 1020.66 16.3965 1020.66 28.7399C1020.66 41.0833 1011.28 50.1105 998.958 50.1105C986.634 50.1105 977.621 40.7148 977.621 28.7399ZM982.219 74.9816H1016.06V228.998H982.219V74.9816Z" fill="url(#paint17_radial_3_40)"/>
<path d="M1036.66 151.99C1036.66 106.116 1068.85 71.297 1112.26 71.297C1155.67 71.297 1153.65 80.8769 1166.16 96.9049V74.7973H1200V228.814H1166.16V206.706C1153.46 222.734 1134.89 232.314 1112.26 232.314C1068.85 232.314 1036.66 197.494 1036.66 151.621M1166.34 151.99C1166.34 124.724 1146.11 103.906 1119.07 103.906C1092.03 103.906 1071.43 124.724 1071.43 151.99C1071.43 179.256 1091.66 200.074 1119.07 200.074C1146.47 200.074 1166.34 179.256 1166.34 151.99Z" fill="url(#paint18_radial_3_40)"/>
<path d="M143.838 164.702L162.6 191.599L169.221 200.995L195.524 238.578C195.708 238.946 196.076 239.315 196.26 239.683C196.26 239.867 196.628 240.052 196.812 240.42C201.41 246.5 208.584 249.816 215.757 249.816H253.832L239.485 229.182L220.723 202.284L187.431 154.753L187.063 154.2C181.913 147.2 173.636 143.515 165.359 144.436C161.496 144.805 157.633 146.094 154.139 148.489C148.253 152.358 144.758 158.438 143.838 164.886" fill="url(#paint19_radial_3_40)"/>
<path d="M167.934 144.252L153.587 164.886L101.717 239.315C100.061 240.052 98.222 240.236 96.3826 240.236C85.7143 240.236 77.2532 231.577 77.2532 221.076V202.1L83.691 192.889L84.2428 192.152L109.994 155.306C110.178 154.937 110.546 154.569 110.73 154.2C110.73 154.016 111.097 153.832 111.281 153.464C115.88 147.384 123.053 144.068 130.227 144.068H168.302L167.934 144.252Z" fill="url(#paint20_radial_3_40)"/>
<path d="M95.8308 249.816H33.6603C15.0828 249.816 0 234.893 0 216.286V33.7141C0 15.1068 15.0828 0 33.6603 0H67.3207V220.892C67.3207 226.603 68.9761 232.13 71.9191 236.551C75.7817 242.447 81.4837 246.868 88.4733 248.71C90.8645 249.447 93.4396 249.816 96.0147 249.816" fill="url(#paint21_radial_3_40)"/>
<path d="M153.587 85.1142L134.825 58.2167L128.204 48.8209L101.901 11.238C101.717 10.8696 101.349 10.5011 101.165 10.1326C101.165 9.94842 100.797 9.76419 100.613 9.39573C96.0147 3.31614 88.8412 0 81.6677 0H43.5929L57.9399 20.6338L76.7014 47.5313L109.994 95.0626L110.362 95.6153C115.512 102.616 123.789 106.301 132.066 105.38C135.929 105.011 139.792 103.721 143.286 101.326C149.172 97.4576 152.667 91.378 153.587 84.93" fill="url(#paint22_radial_3_40)"/>
<path d="M129.491 105.748L143.838 85.1142L195.708 10.6853C197.364 9.94842 199.203 9.76419 201.042 9.76419C211.711 9.76419 220.172 18.423 220.172 28.9241V47.7156L213.734 56.927L213.182 57.664L187.431 94.5099C187.247 94.8784 186.879 95.2469 186.695 95.6153C186.695 95.7996 186.327 95.9838 186.143 96.3522C181.545 102.432 174.372 105.748 167.198 105.748H129.123H129.491Z" fill="url(#paint23_radial_3_40)"/>
<mask id="mask1_3_40" style="mask-type:luminance" maskUnits="userSpaceOnUse" x="0" y="0" width="1200" height="250">
<g opacity="0.6">
<path d="M201.41 0H263.765C282.342 0 297.425 15.1068 297.425 33.7141V216.286C297.425 234.893 282.342 250 263.765 250H230.104V28.9241C230.104 23.213 228.449 17.6861 225.506 13.2646C221.643 7.3692 215.941 2.94768 208.952 1.10538C206.56 0.36846 203.985 0 201.41 0Z" fill="white"/>
<path d="M443.102 20.6337H487.799L556.223 138.725L624.647 20.6337H668.976V228.998H633.109V72.955L566.156 188.836H545.555L478.97 72.955V228.998H443.102V20.6337Z" fill="white"/>
<path d="M692.888 151.99C692.888 106.116 728.203 71.297 775.291 71.297C822.379 71.297 857.695 106.116 857.695 151.99C857.695 197.863 822.195 232.682 775.291 232.682C728.387 232.682 692.888 197.863 692.888 151.99ZM822.563 151.99C822.563 124.724 802.33 103.906 775.291 103.906C748.253 103.906 727.652 124.724 727.652 151.99C727.652 179.256 748.069 200.074 775.291 200.074C802.514 200.074 822.563 179.256 822.563 151.99Z" fill="white"/>
<path d="M885.837 181.651V105.932H859.902V75.1658H875.536C883.446 75.1658 887.676 70.9285 887.676 63.0066V33.3456H919.681V74.9816H957.756V105.748H919.681V176.124C919.681 189.757 928.142 197.863 942.305 197.863H957.756V228.998H937.523C904.047 228.998 886.021 212.049 886.021 181.651" fill="white"/>
<path d="M977.621 28.7399C977.621 16.3965 987.002 7.3692 998.958 7.3692C1010.91 7.3692 1020.66 16.3965 1020.66 28.7399C1020.66 41.0833 1011.28 50.1105 998.958 50.1105C986.634 50.1105 977.621 40.7148 977.621 28.7399ZM982.219 74.9816H1016.06V228.998H982.219V74.9816Z" fill="white"/>
<path d="M1036.66 151.99C1036.66 106.116 1068.85 71.297 1112.26 71.297C1155.67 71.297 1153.65 80.8769 1166.16 96.9049V74.7973H1200V228.814H1166.16V206.706C1153.46 222.734 1134.89 232.314 1112.26 232.314C1068.85 232.314 1036.66 197.494 1036.66 151.621M1166.34 151.99C1166.34 124.724 1146.11 103.906 1119.07 103.906C1092.03 103.906 1071.43 124.724 1071.43 151.99C1071.43 179.256 1091.66 200.074 1119.07 200.074C1146.47 200.074 1166.34 179.256 1166.34 151.99Z" fill="white"/>
<path d="M143.838 164.702L162.6 191.599L169.221 200.995L195.524 238.578C195.708 238.946 196.076 239.315 196.26 239.683C196.26 239.867 196.628 240.052 196.812 240.42C201.41 246.5 208.584 249.816 215.757 249.816H253.832L239.485 229.182L220.723 202.284L187.431 154.753L187.063 154.2C181.913 147.2 173.636 143.515 165.359 144.436C161.496 144.805 157.633 146.094 154.139 148.489C148.253 152.358 144.758 158.438 143.838 164.886" fill="white"/>
<path d="M167.934 144.252L153.587 164.886L101.717 239.315C100.061 240.052 98.222 240.236 96.3826 240.236C85.7143 240.236 77.2532 231.577 77.2532 221.076V202.1L83.691 192.889L84.2428 192.152L109.994 155.306C110.178 154.937 110.546 154.569 110.73 154.2C110.73 154.016 111.097 153.832 111.281 153.464C115.88 147.384 123.053 144.068 130.227 144.068H168.302L167.934 144.252Z" fill="white"/>
<path d="M95.8308 249.816H33.6603C15.0828 249.816 0 234.893 0 216.286V33.7141C0 15.1068 15.0828 0 33.6603 0H67.3207V220.892C67.3207 226.603 68.9761 232.13 71.9191 236.551C75.7817 242.447 81.4837 246.868 88.4733 248.71C90.8645 249.447 93.4396 249.816 96.0147 249.816" fill="white"/>
<path d="M153.587 85.1142L134.825 58.2167L128.204 48.8209L101.901 11.238C101.717 10.8696 101.349 10.5011 101.165 10.1326C101.165 9.94842 100.797 9.76419 100.613 9.39573C96.0147 3.31614 88.8412 0 81.6677 0H43.5929L57.9399 20.6338L76.7014 47.5313L109.994 95.0626L110.362 95.6153C115.512 102.616 123.789 106.301 132.066 105.38C135.929 105.011 139.792 103.721 143.286 101.326C149.172 97.4576 152.667 91.378 153.587 84.93" fill="white"/>
<path d="M129.491 105.748L143.838 85.1142L195.708 10.6853C197.364 9.94842 199.203 9.76419 201.042 9.76419C211.711 9.76419 220.172 18.423 220.172 28.9241V47.7156L213.734 56.927L213.182 57.664L187.431 94.5099C187.247 94.8784 186.879 95.2469 186.695 95.6153C186.695 95.7996 186.327 95.9838 186.143 96.3522C181.545 102.432 174.372 105.748 167.198 105.748H129.123H129.491Z" fill="white"/>
</g>
</mask>
<g mask="url(#mask1_3_40)">
<path d="M201.41 0H263.765C282.342 0 297.425 15.1068 297.425 33.7141V216.286C297.425 234.893 282.342 250 263.765 250H230.104V28.9241C230.104 23.213 228.449 17.6861 225.506 13.2646C221.643 7.3692 215.941 2.94768 208.952 1.10538C206.56 0.36846 203.985 0 201.41 0Z" fill="#F0F0F0"/>
<path d="M201.41 0H263.765C282.342 0 297.425 15.1068 297.425 33.7141V216.286C297.425 234.893 282.342 250 263.765 250H230.104V28.9241C230.104 23.213 228.449 17.6861 225.506 13.2646C221.643 7.3692 215.941 2.94768 208.952 1.10538C206.56 0.36846 203.985 0 201.41 0Z" fill="url(#paint24_linear_3_40)"/>
<path d="M443.102 20.6337H487.799L556.223 138.725L624.647 20.6337H668.976V228.998H633.109V72.955L566.156 188.836H545.555L478.97 72.955V228.998H443.102V20.6337Z" fill="#F0F0F0"/>
<path d="M443.102 20.6337H487.799L556.223 138.725L624.647 20.6337H668.976V228.998H633.109V72.955L566.156 188.836H545.555L478.97 72.955V228.998H443.102V20.6337Z" fill="url(#paint25_linear_3_40)"/>
<path d="M692.888 151.99C692.888 106.116 728.203 71.297 775.291 71.297C822.379 71.297 857.695 106.116 857.695 151.99C857.695 197.863 822.195 232.682 775.291 232.682C728.387 232.682 692.888 197.863 692.888 151.99ZM822.563 151.99C822.563 124.724 802.33 103.906 775.291 103.906C748.253 103.906 727.652 124.724 727.652 151.99C727.652 179.256 748.069 200.074 775.291 200.074C802.514 200.074 822.563 179.256 822.563 151.99Z" fill="#F0F0F0"/>
<path d="M692.888 151.99C692.888 106.116 728.203 71.297 775.291 71.297C822.379 71.297 857.695 106.116 857.695 151.99C857.695 197.863 822.195 232.682 775.291 232.682C728.387 232.682 692.888 197.863 692.888 151.99ZM822.563 151.99C822.563 124.724 802.33 103.906 775.291 103.906C748.253 103.906 727.652 124.724 727.652 151.99C727.652 179.256 748.069 200.074 775.291 200.074C802.514 200.074 822.563 179.256 822.563 151.99Z" fill="url(#paint26_linear_3_40)"/>
<path d="M885.837 181.651V105.932H859.902V75.1658H875.536C883.446 75.1658 887.676 70.9285 887.676 63.0066V33.3456H919.681V74.9816H957.756V105.748H919.681V176.124C919.681 189.757 928.142 197.863 942.305 197.863H957.756V228.998H937.523C904.047 228.998 886.021 212.049 886.021 181.651" fill="#F0F0F0"/>
<path d="M885.837 181.651V105.932H859.902V75.1658H875.536C883.446 75.1658 887.676 70.9285 887.676 63.0066V33.3456H919.681V74.9816H957.756V105.748H919.681V176.124C919.681 189.757 928.142 197.863 942.305 197.863H957.756V228.998H937.523C904.047 228.998 886.021 212.049 886.021 181.651" fill="url(#paint27_linear_3_40)"/>
<path d="M977.621 28.7399C977.621 16.3965 987.002 7.3692 998.958 7.3692C1010.91 7.3692 1020.66 16.3965 1020.66 28.7399C1020.66 41.0833 1011.28 50.1105 998.958 50.1105C986.634 50.1105 977.621 40.7148 977.621 28.7399ZM982.219 74.9816H1016.06V228.998H982.219V74.9816Z" fill="#F0F0F0"/>
<path d="M977.621 28.7399C977.621 16.3965 987.002 7.3692 998.958 7.3692C1010.91 7.3692 1020.66 16.3965 1020.66 28.7399C1020.66 41.0833 1011.28 50.1105 998.958 50.1105C986.634 50.1105 977.621 40.7148 977.621 28.7399ZM982.219 74.9816H1016.06V228.998H982.219V74.9816Z" fill="url(#paint28_linear_3_40)"/>
<path d="M1036.66 151.99C1036.66 106.116 1068.85 71.297 1112.26 71.297C1155.67 71.297 1153.65 80.8769 1166.16 96.9049V74.7973H1200V228.814H1166.16V206.706C1153.46 222.734 1134.89 232.314 1112.26 232.314C1068.85 232.314 1036.66 197.494 1036.66 151.621M1166.34 151.99C1166.34 124.724 1146.11 103.906 1119.07 103.906C1092.03 103.906 1071.43 124.724 1071.43 151.99C1071.43 179.256 1091.66 200.074 1119.07 200.074C1146.47 200.074 1166.34 179.256 1166.34 151.99Z" fill="#F0F0F0"/>
<path d="M1036.66 151.99C1036.66 106.116 1068.85 71.297 1112.26 71.297C1155.67 71.297 1153.65 80.8769 1166.16 96.9049V74.7973H1200V228.814H1166.16V206.706C1153.46 222.734 1134.89 232.314 1112.26 232.314C1068.85 232.314 1036.66 197.494 1036.66 151.621M1166.34 151.99C1166.34 124.724 1146.11 103.906 1119.07 103.906C1092.03 103.906 1071.43 124.724 1071.43 151.99C1071.43 179.256 1091.66 200.074 1119.07 200.074C1146.47 200.074 1166.34 179.256 1166.34 151.99Z" fill="url(#paint29_linear_3_40)"/>
<path d="M143.838 164.702L162.6 191.599L169.221 200.995L195.524 238.578C195.708 238.946 196.076 239.315 196.26 239.683C196.26 239.867 196.628 240.052 196.812 240.42C201.41 246.5 208.584 249.816 215.757 249.816H253.832L239.485 229.182L220.723 202.284L187.431 154.753L187.063 154.2C181.913 147.2 173.636 143.515 165.359 144.436C161.496 144.805 157.633 146.094 154.139 148.489C148.253 152.358 144.758 158.438 143.838 164.886" fill="#F0F0F0"/>
<path d="M143.838 164.702L162.6 191.599L169.221 200.995L195.524 238.578C195.708 238.946 196.076 239.315 196.26 239.683C196.26 239.867 196.628 240.052 196.812 240.42C201.41 246.5 208.584 249.816 215.757 249.816H253.832L239.485 229.182L220.723 202.284L187.431 154.753L187.063 154.2C181.913 147.2 173.636 143.515 165.359 144.436C161.496 144.805 157.633 146.094 154.139 148.489C148.253 152.358 144.758 158.438 143.838 164.886" fill="url(#paint30_linear_3_40)"/>
<path d="M167.934 144.252L153.587 164.886L101.717 239.315C100.061 240.052 98.222 240.236 96.3826 240.236C85.7143 240.236 77.2532 231.577 77.2532 221.076V202.1L83.691 192.889L84.2428 192.152L109.994 155.306C110.178 154.937 110.546 154.569 110.73 154.2C110.73 154.016 111.097 153.832 111.281 153.464C115.88 147.384 123.053 144.068 130.227 144.068H168.302L167.934 144.252Z" fill="#F0F0F0"/>
<path d="M167.934 144.252L153.587 164.886L101.717 239.315C100.061 240.052 98.222 240.236 96.3826 240.236C85.7143 240.236 77.2532 231.577 77.2532 221.076V202.1L83.691 192.889L84.2428 192.152L109.994 155.306C110.178 154.937 110.546 154.569 110.73 154.2C110.73 154.016 111.097 153.832 111.281 153.464C115.88 147.384 123.053 144.068 130.227 144.068H168.302L167.934 144.252Z" fill="url(#paint31_linear_3_40)"/>
<path d="M95.8308 249.816H33.6603C15.0828 249.816 0 234.893 0 216.286V33.7141C0 15.1068 15.0828 0 33.6603 0H67.3207V220.892C67.3207 226.603 68.9761 232.13 71.9191 236.551C75.7817 242.447 81.4837 246.868 88.4733 248.71C90.8645 249.447 93.4396 249.816 96.0147 249.816" fill="#F0F0F0"/>
<path d="M95.8308 249.816H33.6603C15.0828 249.816 0 234.893 0 216.286V33.7141C0 15.1068 15.0828 0 33.6603 0H67.3207V220.892C67.3207 226.603 68.9761 232.13 71.9191 236.551C75.7817 242.447 81.4837 246.868 88.4733 248.71C90.8645 249.447 93.4396 249.816 96.0147 249.816" fill="url(#paint32_linear_3_40)"/>
<path d="M153.587 85.1142L134.825 58.2167L128.204 48.8209L101.901 11.238C101.717 10.8696 101.349 10.5011 101.165 10.1326C101.165 9.94842 100.797 9.76419 100.613 9.39573C96.0147 3.31614 88.8412 0 81.6677 0H43.5929L57.9399 20.6338L76.7014 47.5313L109.994 95.0626L110.362 95.6153C115.512 102.616 123.789 106.301 132.066 105.38C135.929 105.011 139.792 103.721 143.286 101.326C149.172 97.4576 152.667 91.378 153.587 84.93" fill="#F0F0F0"/>
<path d="M153.587 85.1142L134.825 58.2167L128.204 48.8209L101.901 11.238C101.717 10.8696 101.349 10.5011 101.165 10.1326C101.165 9.94842 100.797 9.76419 100.613 9.39573C96.0147 3.31614 88.8412 0 81.6677 0H43.5929L57.9399 20.6338L76.7014 47.5313L109.994 95.0626L110.362 95.6153C115.512 102.616 123.789 106.301 132.066 105.38C135.929 105.011 139.792 103.721 143.286 101.326C149.172 97.4576 152.667 91.378 153.587 84.93" fill="url(#paint33_linear_3_40)"/>
<path d="M129.491 105.748L143.838 85.1142L195.708 10.6853C197.364 9.94842 199.203 9.76419 201.042 9.76419C211.711 9.76419 220.172 18.423 220.172 28.9241V47.7156L213.734 56.927L213.182 57.664L187.431 94.5099C187.247 94.8784 186.879 95.2469 186.695 95.6153C186.695 95.7996 186.327 95.9838 186.143 96.3522C181.545 102.432 174.372 105.748 167.198 105.748H129.123H129.491Z" fill="#F0F0F0"/>
<path d="M129.491 105.748L143.838 85.1142L195.708 10.6853C197.364 9.94842 199.203 9.76419 201.042 9.76419C211.711 9.76419 220.172 18.423 220.172 28.9241V47.7156L213.734 56.927L213.182 57.664L187.431 94.5099C187.247 94.8784 186.879 95.2469 186.695 95.6153C186.695 95.7996 186.327 95.9838 186.143 96.3522C181.545 102.432 174.372 105.748 167.198 105.748H129.123H129.491Z" fill="url(#paint34_linear_3_40)"/>
</g>
</g>
<path d="M6.48 195.225C6.48 194.521 6.572 193.887 6.756 193.324C6.948 192.751 7.28 192.207 7.752 191.69C8.232 191.174 8.896 190.653 9.744 190.127C10.136 189.883 10.452 189.657 10.692 189.451C10.932 189.244 11.108 189.023 11.22 188.789C11.332 188.554 11.388 188.268 11.388 187.93C11.388 187.582 11.324 187.282 11.196 187.028C11.068 186.765 10.876 186.559 10.62 186.408C10.372 186.258 10.06 186.183 9.684 186.183C9.084 186.183 8.608 186.366 8.256 186.732C7.912 187.099 7.696 187.62 7.608 188.296L6.528 188.211C6.624 187.235 6.944 186.455 7.488 185.873C8.032 185.291 8.764 185 9.684 185C10.268 185 10.768 185.122 11.184 185.366C11.6 185.61 11.916 185.953 12.132 186.394C12.356 186.826 12.468 187.329 12.468 187.901C12.468 188.408 12.396 188.85 12.252 189.225C12.108 189.592 11.864 189.934 11.52 190.254C11.184 190.573 10.72 190.915 10.128 191.282C9.36 191.761 8.776 192.244 8.376 192.732C7.984 193.221 7.776 193.657 7.752 194.042H12.468V195.225H6.48ZM17.4045 195.451C16.7165 195.451 16.1205 195.239 15.6165 194.817C15.1125 194.394 14.7205 193.793 14.4405 193.014C14.1685 192.235 14.0325 191.31 14.0325 190.239C14.0325 189.169 14.1685 188.244 14.4405 187.465C14.7205 186.676 15.1125 186.07 15.6165 185.648C16.1205 185.216 16.7165 185 17.4045 185C18.1005 185 18.7005 185.216 19.2045 185.648C19.7085 186.07 20.0965 186.671 20.3685 187.451C20.6485 188.23 20.7885 189.16 20.7885 190.239C20.7885 191.31 20.6485 192.235 20.3685 193.014C20.0965 193.793 19.7085 194.394 19.2045 194.817C18.7005 195.239 18.1005 195.451 17.4045 195.451ZM17.4045 194.268C18.1405 194.268 18.7085 193.92 19.1085 193.225C19.5085 192.521 19.7085 191.526 19.7085 190.239C19.7085 189.376 19.6165 188.643 19.4325 188.042C19.2565 187.432 18.9965 186.972 18.6525 186.662C18.3165 186.343 17.9005 186.183 17.4045 186.183C16.9165 186.183 16.5005 186.343 16.1565 186.662C15.8205 186.972 15.5605 187.432 15.3765 188.042C15.2005 188.643 15.1125 189.376 15.1125 190.239C15.1125 191.526 15.3125 192.521 15.7125 193.225C16.1125 193.92 16.6765 194.268 17.4045 194.268ZM22.3523 195.225C22.3523 194.521 22.4443 193.887 22.6283 193.324C22.8203 192.751 23.1523 192.207 23.6243 191.69C24.1043 191.174 24.7683 190.653 25.6163 190.127C26.0083 189.883 26.3243 189.657 26.5643 189.451C26.8043 189.244 26.9803 189.023 27.0923 188.789C27.2043 188.554 27.2603 188.268 27.2603 187.93C27.2603 187.582 27.1963 187.282 27.0683 187.028C26.9403 186.765 26.7483 186.559 26.4923 186.408C26.2443 186.258 25.9323 186.183 25.5563 186.183C24.9563 186.183 24.4803 186.366 24.1283 186.732C23.7843 187.099 23.5683 187.62 23.4803 188.296L22.4003 188.211C22.4963 187.235 22.8163 186.455 23.3603 185.873C23.9043 185.291 24.6363 185 25.5563 185C26.1403 185 26.6403 185.122 27.0563 185.366C27.4723 185.61 27.7883 185.953 28.0043 186.394C28.2283 186.826 28.3403 187.329 28.3403 187.901C28.3403 188.408 28.2683 188.85 28.1243 189.225C27.9803 189.592 27.7363 189.934 27.3923 190.254C27.0563 190.573 26.5923 190.915 26.0003 191.282C25.2323 191.761 24.6483 192.244 24.2483 192.732C23.8563 193.221 23.6483 193.657 23.6243 194.042H28.3403V195.225H22.3523ZM33.166 195.451C32.566 195.451 32.046 195.333 31.606 195.099C31.174 194.864 30.83 194.535 30.574 194.113C30.326 193.69 30.182 193.202 30.142 192.648L31.222 192.563C31.286 193.127 31.49 193.554 31.834 193.845C32.186 194.127 32.63 194.268 33.166 194.268C33.766 194.268 34.242 194.07 34.594 193.676C34.946 193.272 35.122 192.718 35.122 192.014C35.122 191.545 35.042 191.141 34.882 190.803C34.73 190.455 34.506 190.188 34.21 190C33.914 189.812 33.558 189.718 33.142 189.718C32.75 189.718 32.394 189.817 32.074 190.014C31.754 190.211 31.526 190.488 31.39 190.845H30.286L30.85 185.225H35.626V186.408H31.798L31.414 190.099L31.222 189.873C31.35 189.582 31.518 189.343 31.726 189.155C31.942 188.958 32.186 188.812 32.458 188.718C32.738 188.615 33.03 188.563 33.334 188.563C33.902 188.563 34.402 188.714 34.834 189.014C35.266 189.305 35.602 189.714 35.842 190.239C36.082 190.756 36.202 191.347 36.202 192.014C36.202 192.681 36.074 193.277 35.818 193.803C35.562 194.319 35.206 194.723 34.75 195.014C34.294 195.305 33.766 195.451 33.166 195.451ZM37.8218 195.225V193.634H39.1778V195.225H37.8218ZM6 210.484L9.072 200.484H10.464L13.536 210.484H12.408L11.556 207.639H7.98L7.128 210.484H6ZM8.328 206.455H11.208L9.768 201.54L8.328 206.455ZM16.1092 210.484C15.7412 210.484 15.4412 210.371 15.2092 210.146C14.9772 209.92 14.8612 209.563 14.8612 209.075V200.484H15.8692V208.977C15.8692 209.127 15.9012 209.244 15.9652 209.329C16.0372 209.404 16.1372 209.441 16.2652 209.441H16.8172V210.484H16.1092ZM19.5513 210.484C19.1833 210.484 18.8833 210.371 18.6513 210.146C18.4193 209.92 18.3033 209.563 18.3033 209.075V200.484H19.3113V208.977C19.3113 209.127 19.3433 209.244 19.4073 209.329C19.4793 209.404 19.5793 209.441 19.7073 209.441H20.2593V210.484H19.5513ZM25.3665 210.484V200.484H28.5945C29.1945 200.484 29.7105 200.606 30.1425 200.85C30.5745 201.094 30.9065 201.446 31.1385 201.906C31.3785 202.357 31.4985 202.892 31.4985 203.512C31.4985 203.962 31.4065 204.366 31.2225 204.723C31.0465 205.07 30.8185 205.347 30.5385 205.554C30.2585 205.761 29.9665 205.873 29.6625 205.892L29.5905 205.765C30.1105 205.765 30.5185 205.906 30.8145 206.188C31.1185 206.469 31.2945 206.92 31.3425 207.54L31.5825 210.484H30.5385L30.3225 207.667C30.2905 207.254 30.1625 206.948 29.9385 206.751C29.7225 206.554 29.3665 206.455 28.8705 206.455H26.3985V210.484H25.3665ZM26.3985 205.272H28.7265C29.2465 205.272 29.6585 205.117 29.9625 204.808C30.2665 204.498 30.4185 204.056 30.4185 203.484C30.4185 202.901 30.2625 202.455 29.9505 202.146C29.6385 201.826 29.1865 201.667 28.5945 201.667H26.3985V205.272ZM33.645 210.484V203.019H34.653V210.484H33.645ZM33.621 201.85V200.469H34.677V201.85H33.621ZM39.2295 212.765C38.7735 212.765 38.3615 212.676 37.9935 212.498C37.6255 212.319 37.3175 212.066 37.0695 211.737C36.8215 211.408 36.6535 211.028 36.5655 210.596L37.6215 210.512C37.7175 210.859 37.8855 211.131 38.1255 211.329C38.3735 211.535 38.7415 211.638 39.2295 211.638C39.8055 211.638 40.2455 211.502 40.5495 211.23C40.8615 210.958 41.0175 210.549 41.0175 210.005V208.793C40.8655 209.188 40.6215 209.502 40.2855 209.737C39.9495 209.972 39.5735 210.089 39.1575 210.089C38.6215 210.089 38.1415 209.934 37.7175 209.624C37.3015 209.315 36.9735 208.887 36.7335 208.343C36.5015 207.798 36.3855 207.174 36.3855 206.469C36.3855 205.756 36.5015 205.131 36.7335 204.596C36.9655 204.052 37.2855 203.624 37.6935 203.315C38.1095 203.005 38.5815 202.85 39.1095 202.85C39.5575 202.85 39.9575 202.972 40.3095 203.216C40.6695 203.46 40.9215 203.789 41.0655 204.202V203.019H42.0255V209.977C42.0255 210.559 41.9135 211.056 41.6895 211.469C41.4655 211.892 41.1455 212.211 40.7295 212.427C40.3135 212.653 39.8135 212.765 39.2295 212.765ZM39.2055 208.962C39.7495 208.962 40.1855 208.742 40.5135 208.3C40.8415 207.85 41.0095 207.239 41.0175 206.469C41.0255 205.953 40.9535 205.512 40.8015 205.146C40.6575 204.77 40.4455 204.484 40.1655 204.286C39.8935 204.08 39.5735 203.977 39.2055 203.977C38.6455 203.977 38.2095 204.202 37.8975 204.653C37.5935 205.094 37.4415 205.7 37.4415 206.469C37.4415 207.239 37.5975 207.85 37.9095 208.3C38.2295 208.742 38.6615 208.962 39.2055 208.962ZM44.1267 210.484V200.484H45.1347V204.667L45.0147 204.639C45.0947 204.225 45.2307 203.887 45.4227 203.624C45.6147 203.362 45.8507 203.169 46.1307 203.047C46.4107 202.916 46.7187 202.85 47.0547 202.85C47.5107 202.85 47.8947 202.972 48.2067 203.216C48.5267 203.451 48.7667 203.784 48.9267 204.216C49.0947 204.639 49.1787 205.127 49.1787 205.681V210.484H48.1707V206.019C48.1707 205.296 48.0587 204.761 47.8347 204.413C47.6187 204.066 47.2867 203.892 46.8387 203.892C46.3267 203.892 45.9147 204.075 45.6027 204.441C45.2907 204.808 45.1347 205.338 45.1347 206.033V210.484H44.1267ZM53.3069 210.484C52.7309 210.484 52.3029 210.329 52.0229 210.019C51.7509 209.709 51.6149 209.225 51.6149 208.568V201.272H52.6229V208.54C52.6229 208.878 52.6869 209.113 52.8149 209.244C52.9429 209.376 53.1389 209.441 53.4029 209.441H54.3149V210.484H53.3069ZM50.6789 204.061V203.019H54.3149V204.061H50.6789ZM58.1666 210.653C57.5986 210.653 57.1146 210.545 56.7146 210.329C56.3226 210.113 56.0146 209.817 55.7906 209.441C55.5746 209.056 55.4506 208.62 55.4186 208.131L56.4746 208.047C56.5386 208.498 56.7026 208.859 56.9666 209.131C57.2306 209.394 57.6306 209.526 58.1666 209.526C58.5986 209.526 58.9426 209.446 59.1986 209.286C59.4626 209.117 59.5946 208.85 59.5946 208.484C59.5946 208.286 59.5546 208.122 59.4746 207.991C59.3946 207.859 59.2386 207.746 59.0066 207.653C58.7746 207.549 58.4306 207.451 57.9746 207.357C57.3666 207.225 56.8866 207.066 56.5346 206.878C56.1906 206.681 55.9426 206.441 55.7906 206.16C55.6466 205.869 55.5746 205.526 55.5746 205.131C55.5746 204.465 55.7826 203.92 56.1986 203.498C56.6146 203.066 57.2066 202.85 57.9746 202.85C58.4946 202.85 58.9306 202.962 59.2826 203.188C59.6426 203.404 59.9226 203.695 60.1226 204.061C60.3306 204.418 60.4666 204.812 60.5306 205.244L59.4746 205.329C59.4266 205.066 59.3386 204.836 59.2106 204.639C59.0826 204.432 58.9146 204.272 58.7066 204.16C58.4986 204.038 58.2506 203.977 57.9626 203.977C57.5066 203.977 57.1706 204.08 56.9546 204.286C56.7386 204.493 56.6306 204.756 56.6306 205.075C56.6306 205.319 56.6786 205.521 56.7746 205.681C56.8786 205.831 57.0426 205.958 57.2666 206.061C57.4906 206.155 57.7906 206.239 58.1666 206.315C58.8146 206.446 59.3186 206.606 59.6786 206.793C60.0386 206.981 60.2906 207.211 60.4346 207.484C60.5786 207.756 60.6506 208.089 60.6506 208.484C60.6506 208.944 60.5386 209.338 60.3146 209.667C60.0986 209.986 59.8026 210.23 59.4266 210.399C59.0586 210.568 58.6386 210.653 58.1666 210.653ZM6.864 225.742V215.742H10.092C10.692 215.742 11.208 215.864 11.64 216.108C12.072 216.352 12.404 216.704 12.636 217.164C12.876 217.615 12.996 218.15 12.996 218.77C12.996 219.221 12.904 219.624 12.72 219.981C12.544 220.329 12.316 220.606 12.036 220.812C11.756 221.019 11.464 221.131 11.16 221.15L11.088 221.023C11.608 221.023 12.016 221.164 12.312 221.446C12.616 221.728 12.792 222.178 12.84 222.798L13.08 225.742H12.036L11.82 222.925C11.788 222.512 11.66 222.207 11.436 222.009C11.22 221.812 10.864 221.714 10.368 221.714H7.896V225.742H6.864ZM7.896 220.531H10.224C10.744 220.531 11.156 220.376 11.46 220.066C11.764 219.756 11.916 219.315 11.916 218.742C11.916 218.16 11.76 217.714 11.448 217.404C11.136 217.085 10.684 216.925 10.092 216.925H7.896V220.531ZM17.4859 225.911C16.8859 225.911 16.3659 225.751 15.9259 225.432C15.4939 225.113 15.1579 224.662 14.9179 224.08C14.6859 223.488 14.5699 222.798 14.5699 222.009C14.5699 221.221 14.6859 220.535 14.9179 219.953C15.1579 219.371 15.4899 218.92 15.9139 218.601C16.3459 218.272 16.8539 218.108 17.4379 218.108C17.9899 218.108 18.4779 218.263 18.9019 218.573C19.3259 218.873 19.6539 219.315 19.8859 219.897C20.1259 220.479 20.2459 221.188 20.2459 222.023V222.376H15.6259C15.6659 223.174 15.8459 223.775 16.1659 224.178C16.4939 224.582 16.9339 224.784 17.4859 224.784C17.9019 224.784 18.2419 224.671 18.5059 224.446C18.7779 224.211 18.9659 223.906 19.0699 223.531L20.1499 223.629C19.9819 224.296 19.6619 224.845 19.1899 225.277C18.7259 225.7 18.1579 225.911 17.4859 225.911ZM15.6259 221.333H19.1419C19.0939 220.61 18.9139 220.08 18.6019 219.742C18.2979 219.404 17.9099 219.235 17.4379 219.235C16.9499 219.235 16.5459 219.413 16.2259 219.77C15.9139 220.117 15.7139 220.639 15.6259 221.333ZM24.2873 225.911C23.7193 225.911 23.2353 225.803 22.8353 225.587C22.4433 225.371 22.1353 225.075 21.9113 224.7C21.6953 224.315 21.5713 223.878 21.5393 223.39L22.5953 223.305C22.6593 223.756 22.8233 224.117 23.0873 224.39C23.3513 224.653 23.7513 224.784 24.2873 224.784C24.7193 224.784 25.0633 224.704 25.3193 224.545C25.5833 224.376 25.7153 224.108 25.7153 223.742C25.7153 223.545 25.6753 223.38 25.5953 223.249C25.5153 223.117 25.3593 223.005 25.1273 222.911C24.8953 222.808 24.5513 222.709 24.0953 222.615C23.4873 222.484 23.0073 222.324 22.6553 222.136C22.3113 221.939 22.0633 221.7 21.9113 221.418C21.7673 221.127 21.6953 220.784 21.6953 220.39C21.6953 219.723 21.9033 219.178 22.3193 218.756C22.7353 218.324 23.3273 218.108 24.0953 218.108C24.6153 218.108 25.0513 218.221 25.4033 218.446C25.7633 218.662 26.0433 218.953 26.2433 219.319C26.4513 219.676 26.5873 220.07 26.6513 220.502L25.5953 220.587C25.5473 220.324 25.4593 220.094 25.3313 219.897C25.2033 219.69 25.0353 219.531 24.8273 219.418C24.6193 219.296 24.3713 219.235 24.0833 219.235C23.6273 219.235 23.2913 219.338 23.0753 219.545C22.8593 219.751 22.7513 220.014 22.7513 220.333C22.7513 220.577 22.7993 220.779 22.8953 220.939C22.9993 221.089 23.1633 221.216 23.3873 221.319C23.6113 221.413 23.9113 221.498 24.2873 221.573C24.9353 221.704 25.4393 221.864 25.7993 222.052C26.1593 222.239 26.4113 222.469 26.5553 222.742C26.6993 223.014 26.7713 223.347 26.7713 223.742C26.7713 224.202 26.6593 224.596 26.4353 224.925C26.2193 225.244 25.9233 225.488 25.5473 225.657C25.1793 225.826 24.7593 225.911 24.2873 225.911ZM30.991 225.911C30.391 225.911 29.871 225.751 29.431 225.432C28.999 225.113 28.663 224.662 28.423 224.08C28.191 223.488 28.075 222.798 28.075 222.009C28.075 221.221 28.191 220.535 28.423 219.953C28.663 219.371 28.995 218.92 29.419 218.601C29.851 218.272 30.359 218.108 30.943 218.108C31.495 218.108 31.983 218.263 32.407 218.573C32.831 218.873 33.159 219.315 33.391 219.897C33.631 220.479 33.751 221.188 33.751 222.023V222.376H29.131C29.171 223.174 29.351 223.775 29.671 224.178C29.999 224.582 30.439 224.784 30.991 224.784C31.407 224.784 31.747 224.671 32.011 224.446C32.283 224.211 32.471 223.906 32.575 223.531L33.655 223.629C33.487 224.296 33.167 224.845 32.695 225.277C32.231 225.7 31.663 225.911 30.991 225.911ZM29.131 221.333H32.647C32.599 220.61 32.419 220.08 32.107 219.742C31.803 219.404 31.415 219.235 30.943 219.235C30.455 219.235 30.051 219.413 29.731 219.77C29.419 220.117 29.219 220.639 29.131 221.333ZM35.4764 225.742V218.277H36.3644L36.4124 220.164L36.3164 220.122C36.3964 219.484 36.5684 219.019 36.8324 218.728C37.1044 218.427 37.4644 218.277 37.9124 218.277H38.5364V219.404H37.9244C37.6044 219.404 37.3364 219.474 37.1204 219.615C36.9124 219.746 36.7524 219.948 36.6404 220.221C36.5364 220.484 36.4844 220.822 36.4844 221.235V225.742H35.4764ZM41.6986 225.742L39.3826 218.277H40.4866L42.3346 224.531L44.1826 218.277H45.2866L42.9706 225.742H41.6986ZM49.0398 225.911C48.4398 225.911 47.9198 225.751 47.4798 225.432C47.0478 225.113 46.7118 224.662 46.4718 224.08C46.2398 223.488 46.1238 222.798 46.1238 222.009C46.1238 221.221 46.2398 220.535 46.4718 219.953C46.7118 219.371 47.0438 218.92 47.4678 218.601C47.8998 218.272 48.4078 218.108 48.9918 218.108C49.5438 218.108 50.0318 218.263 50.4558 218.573C50.8798 218.873 51.2078 219.315 51.4398 219.897C51.6798 220.479 51.7998 221.188 51.7998 222.023V222.376H47.1798C47.2198 223.174 47.3998 223.775 47.7198 224.178C48.0478 224.582 48.4878 224.784 49.0398 224.784C49.4558 224.784 49.7958 224.671 50.0598 224.446C50.3318 224.211 50.5198 223.906 50.6238 223.531L51.7038 223.629C51.5358 224.296 51.2158 224.845 50.7438 225.277C50.2798 225.7 49.7118 225.911 49.0398 225.911ZM47.1798 221.333H50.6958C50.6478 220.61 50.4678 220.08 50.1558 219.742C49.8518 219.404 49.4638 219.235 48.9918 219.235C48.5038 219.235 48.0998 219.413 47.7798 219.77C47.4678 220.117 47.2678 220.639 47.1798 221.333ZM55.7812 225.911C55.2292 225.911 54.7492 225.751 54.3412 225.432C53.9412 225.113 53.6332 224.662 53.4172 224.08C53.2012 223.498 53.0932 222.808 53.0932 222.009C53.0932 221.211 53.2012 220.521 53.4172 219.939C53.6332 219.357 53.9412 218.906 54.3412 218.587C54.7492 218.268 55.2292 218.108 55.7812 218.108C56.2052 218.108 56.5932 218.216 56.9452 218.432C57.2972 218.639 57.5612 218.934 57.7372 219.319V215.742H58.7452V225.742H57.8332L57.7972 224.615C57.6212 225.019 57.3532 225.338 56.9932 225.573C56.6332 225.798 56.2292 225.911 55.7812 225.911ZM55.9852 224.784C56.3612 224.784 56.6772 224.671 56.9332 224.446C57.1972 224.221 57.3972 223.901 57.5332 223.488C57.6692 223.066 57.7372 222.573 57.7372 222.009C57.7372 221.427 57.6692 220.93 57.5332 220.516C57.3972 220.103 57.1972 219.789 56.9332 219.573C56.6772 219.347 56.3612 219.235 55.9852 219.235C55.4252 219.235 54.9772 219.484 54.6412 219.981C54.3132 220.469 54.1492 221.146 54.1492 222.009C54.1492 222.864 54.3132 223.54 54.6412 224.038C54.9772 224.535 55.4252 224.784 55.9852 224.784Z" fill="white" fill-opacity="0.6"/>
</g>
</g>
<defs>
<radialGradient id="paint0_radial_3_40" cx="0" cy="0" r="1" gradientUnits="userSpaceOnUse" gradientTransform="translate(1015 -41.6667) rotate(80.6545) scale(295.59 1321.29)">
<stop offset="0.25489" stop-color="#D9D9D9"/>
<stop offset="1" stop-color="#737373" stop-opacity="0"/>
</radialGradient>
<linearGradient id="paint1_linear_3_40" x1="0" y1="125" x2="1200" y2="125" gradientUnits="userSpaceOnUse">
<stop/>
<stop offset="0.61254" stop-opacity="0"/>
</linearGradient>
<linearGradient id="paint2_linear_3_40" x1="600.002" y1="0" x2="600.002" y2="250" gradientUnits="userSpaceOnUse">
<stop stop-color="#E3E4FF"/>
<stop offset="1" stop-color="#888999"/>
</linearGradient>
<linearGradient id="paint3_linear_3_40" x1="600.002" y1="0" x2="600.002" y2="250" gradientUnits="userSpaceOnUse">
<stop stop-color="#E3E4FF"/>
<stop offset="1" stop-color="#888999"/>
</linearGradient>
<linearGradient id="paint4_linear_3_40" x1="600.002" y1="0" x2="600.002" y2="250" gradientUnits="userSpaceOnUse">
<stop stop-color="#E3E4FF"/>
<stop offset="1" stop-color="#888999"/>
</linearGradient>
<linearGradient id="paint5_linear_3_40" x1="600.002" y1="0" x2="600.002" y2="250" gradientUnits="userSpaceOnUse">
<stop stop-color="#E3E4FF"/>
<stop offset="1" stop-color="#888999"/>
</linearGradient>
<linearGradient id="paint6_linear_3_40" x1="600.002" y1="0" x2="600.002" y2="250" gradientUnits="userSpaceOnUse">
<stop stop-color="#E3E4FF"/>
<stop offset="1" stop-color="#888999"/>
</linearGradient>
<linearGradient id="paint7_linear_3_40" x1="600.002" y1="0" x2="600.002" y2="250" gradientUnits="userSpaceOnUse">
<stop stop-color="#E3E4FF"/>
<stop offset="1" stop-color="#888999"/>
</linearGradient>
<linearGradient id="paint8_linear_3_40" x1="600.002" y1="0" x2="600.002" y2="250" gradientUnits="userSpaceOnUse">
<stop stop-color="#E3E4FF"/>
<stop offset="1" stop-color="#888999"/>
</linearGradient>
<linearGradient id="paint9_linear_3_40" x1="600.002" y1="0" x2="600.002" y2="250" gradientUnits="userSpaceOnUse">
<stop stop-color="#E3E4FF"/>
<stop offset="1" stop-color="#888999"/>
</linearGradient>
<linearGradient id="paint10_linear_3_40" x1="600.002" y1="0" x2="600.002" y2="250" gradientUnits="userSpaceOnUse">
<stop stop-color="#E3E4FF"/>
<stop offset="1" stop-color="#888999"/>
</linearGradient>
<linearGradient id="paint11_linear_3_40" x1="600.002" y1="0" x2="600.002" y2="250" gradientUnits="userSpaceOnUse">
<stop stop-color="#E3E4FF"/>
<stop offset="1" stop-color="#888999"/>
</linearGradient>
<linearGradient id="paint12_linear_3_40" x1="600.002" y1="0" x2="600.002" y2="250" gradientUnits="userSpaceOnUse">
<stop stop-color="#E3E4FF"/>
<stop offset="1" stop-color="#888999"/>
</linearGradient>
<radialGradient id="paint13_radial_3_40" cx="0" cy="0" r="1" gradientUnits="userSpaceOnUse" gradientTransform="translate(832.486 -237.869) rotate(73.3098) scale(583.215 1907.28)">
<stop offset="0.587372" stop-color="white" stop-opacity="0"/>
<stop offset="0.951237" stop-color="#0055FF"/>
</radialGradient>
<radialGradient id="paint14_radial_3_40" cx="0" cy="0" r="1" gradientUnits="userSpaceOnUse" gradientTransform="translate(832.486 -237.869) rotate(73.3098) scale(583.215 1907.28)">
<stop offset="0.587372" stop-color="white" stop-opacity="0"/>
<stop offset="0.951237" stop-color="#0055FF"/>
</radialGradient>
<radialGradient id="paint15_radial_3_40" cx="0" cy="0" r="1" gradientUnits="userSpaceOnUse" gradientTransform="translate(832.486 -237.869) rotate(73.3098) scale(583.215 1907.28)">
<stop offset="0.587372" stop-color="white" stop-opacity="0"/>
<stop offset="0.951237" stop-color="#0055FF"/>
</radialGradient>
<radialGradient id="paint16_radial_3_40" cx="0" cy="0" r="1" gradientUnits="userSpaceOnUse" gradientTransform="translate(832.486 -237.869) rotate(73.3098) scale(583.215 1907.28)">
<stop offset="0.587372" stop-color="white" stop-opacity="0"/>
<stop offset="0.951237" stop-color="#0055FF"/>
</radialGradient>
<radialGradient id="paint17_radial_3_40" cx="0" cy="0" r="1" gradientUnits="userSpaceOnUse" gradientTransform="translate(832.486 -237.869) rotate(73.3098) scale(583.215 1907.28)">
<stop offset="0.587372" stop-color="white" stop-opacity="0"/>
<stop offset="0.951237" stop-color="#0055FF"/>
</radialGradient>
<radialGradient id="paint18_radial_3_40" cx="0" cy="0" r="1" gradientUnits="userSpaceOnUse" gradientTransform="translate(832.486 -237.869) rotate(73.3098) scale(583.215 1907.28)">
<stop offset="0.587372" stop-color="white" stop-opacity="0"/>
<stop offset="0.951237" stop-color="#0055FF"/>
</radialGradient>
<radialGradient id="paint19_radial_3_40" cx="0" cy="0" r="1" gradientUnits="userSpaceOnUse" gradientTransform="translate(832.486 -237.869) rotate(73.3098) scale(583.215 1907.28)">
<stop offset="0.587372" stop-color="white" stop-opacity="0"/>
<stop offset="0.951237" stop-color="#0055FF"/>
</radialGradient>
<radialGradient id="paint20_radial_3_40" cx="0" cy="0" r="1" gradientUnits="userSpaceOnUse" gradientTransform="translate(832.486 -237.869) rotate(73.3098) scale(583.215 1907.28)">
<stop offset="0.587372" stop-color="white" stop-opacity="0"/>
<stop offset="0.951237" stop-color="#0055FF"/>
</radialGradient>
<radialGradient id="paint21_radial_3_40" cx="0" cy="0" r="1" gradientUnits="userSpaceOnUse" gradientTransform="translate(832.486 -237.869) rotate(73.3098) scale(583.215 1907.28)">
<stop offset="0.587372" stop-color="white" stop-opacity="0"/>
<stop offset="0.951237" stop-color="#0055FF"/>
</radialGradient>
<radialGradient id="paint22_radial_3_40" cx="0" cy="0" r="1" gradientUnits="userSpaceOnUse" gradientTransform="translate(832.486 -237.869) rotate(73.3098) scale(583.215 1907.28)">
<stop offset="0.587372" stop-color="white" stop-opacity="0"/>
<stop offset="0.951237" stop-color="#0055FF"/>
</radialGradient>
<radialGradient id="paint23_radial_3_40" cx="0" cy="0" r="1" gradientUnits="userSpaceOnUse" gradientTransform="translate(832.486 -237.869) rotate(73.3098) scale(583.215 1907.28)">
<stop offset="0.587372" stop-color="white" stop-opacity="0"/>
<stop offset="0.951237" stop-color="#0055FF"/>
</radialGradient>
<linearGradient id="paint24_linear_3_40" x1="600.002" y1="1.14838" x2="600.002" y2="248.852" gradientUnits="userSpaceOnUse">
<stop offset="0.576597" stop-color="#B7C3FF"/>
<stop offset="1" stop-color="#C0CFFF" stop-opacity="0.1"/>
</linearGradient>
<linearGradient id="paint25_linear_3_40" x1="600.002" y1="1.14838" x2="600.002" y2="248.852" gradientUnits="userSpaceOnUse">
<stop offset="0.576597" stop-color="#B7C3FF"/>
<stop offset="1" stop-color="#C0CFFF" stop-opacity="0.1"/>
</linearGradient>
<linearGradient id="paint26_linear_3_40" x1="600.002" y1="1.14838" x2="600.002" y2="248.852" gradientUnits="userSpaceOnUse">
<stop offset="0.576597" stop-color="#B7C3FF"/>
<stop offset="1" stop-color="#C0CFFF" stop-opacity="0.1"/>
</linearGradient>
<linearGradient id="paint27_linear_3_40" x1="600.002" y1="1.14838" x2="600.002" y2="248.852" gradientUnits="userSpaceOnUse">
<stop offset="0.576597" stop-color="#B7C3FF"/>
<stop offset="1" stop-color="#C0CFFF" stop-opacity="0.1"/>
</linearGradient>
<linearGradient id="paint28_linear_3_40" x1="600.002" y1="1.14838" x2="600.002" y2="248.852" gradientUnits="userSpaceOnUse">
<stop offset="0.576597" stop-color="#B7C3FF"/>
<stop offset="1" stop-color="#C0CFFF" stop-opacity="0.1"/>
</linearGradient>
<linearGradient id="paint29_linear_3_40" x1="600.002" y1="1.14838" x2="600.002" y2="248.852" gradientUnits="userSpaceOnUse">
<stop offset="0.576597" stop-color="#B7C3FF"/>
<stop offset="1" stop-color="#C0CFFF" stop-opacity="0.1"/>
</linearGradient>
<linearGradient id="paint30_linear_3_40" x1="600.002" y1="1.14838" x2="600.002" y2="248.852" gradientUnits="userSpaceOnUse">
<stop offset="0.576597" stop-color="#B7C3FF"/>
<stop offset="1" stop-color="#C0CFFF" stop-opacity="0.1"/>
</linearGradient>
<linearGradient id="paint31_linear_3_40" x1="600.002" y1="1.14838" x2="600.002" y2="248.852" gradientUnits="userSpaceOnUse">
<stop offset="0.576597" stop-color="#B7C3FF"/>
<stop offset="1" stop-color="#C0CFFF" stop-opacity="0.1"/>
</linearGradient>
<linearGradient id="paint32_linear_3_40" x1="600.002" y1="1.14838" x2="600.002" y2="248.852" gradientUnits="userSpaceOnUse">
<stop offset="0.576597" stop-color="#B7C3FF"/>
<stop offset="1" stop-color="#C0CFFF" stop-opacity="0.1"/>
</linearGradient>
<linearGradient id="paint33_linear_3_40" x1="600.002" y1="1.14838" x2="600.002" y2="248.852" gradientUnits="userSpaceOnUse">
<stop offset="0.576597" stop-color="#B7C3FF"/>
<stop offset="1" stop-color="#C0CFFF" stop-opacity="0.1"/>
</linearGradient>
<linearGradient id="paint34_linear_3_40" x1="600.002" y1="1.14838" x2="600.002" y2="248.852" gradientUnits="userSpaceOnUse">
<stop offset="0.576597" stop-color="#B7C3FF"/>
<stop offset="1" stop-color="#C0CFFF" stop-opacity="0.1"/>
</linearGradient>
<clipPath id="clip0_3_40">
<rect width="1200" height="250" fill="white"/>
</clipPath>
</defs>
</svg>
