<?xml version="1.0" encoding="UTF-8"?>
<svg id="Camada_1" xmlns="http://www.w3.org/2000/svg" version="1.1" viewBox="0 0 652.4 135.7">
  <!-- Generator: Adobe Illustrator 29.5.1, SVG Export Plug-In . SVG Version: 2.1.0 Build 141)  -->
  <defs>
    <style>
      .st0 {
        fill: #101633;
      }

      .st1 {
        fill: #2f7eff;
      }
    </style>
  </defs>
  <path class="st1" d="M109.5.1h33.9c10.1,0,18.3,8.2,18.3,18.3v99.1c0,10.1-8.2,18.3-18.3,18.3h-18.3V15.8c0-3.1-.9-6.1-2.5-8.5-2.1-3.2-5.2-5.6-9-6.6-1.3-.4-2.7-.6-4.1-.6"/>
  <polygon class="st0" points="240.9 11.3 265.2 11.3 302.4 75.4 339.6 11.3 363.7 11.3 363.7 124.4 344.2 124.4 344.2 39.7 307.8 102.6 296.6 102.6 260.4 39.7 260.4 124.4 240.9 124.4 240.9 11.3"/>
  <path class="st0" d="M376.7,82.6c0-24.9,19.2-43.8,44.8-43.8s44.8,18.9,44.8,43.8-19.3,43.8-44.8,43.8-44.8-18.9-44.8-43.8M447.2,82.6c0-14.8-11-26.1-25.7-26.1s-25.9,11.3-25.9,26.1,11.1,26.1,25.9,26.1,25.7-11.3,25.7-26.1"/>
  <path class="st0" d="M481.6,98.7v-41.1h-14.1v-16.7h8.5c4.3,0,6.6-2.3,6.6-6.6v-16.1h17.4v22.6h20.7v16.7h-20.7v38.2c0,7.4,4.6,11.8,12.3,11.8h8.4v16.9h-11c-18.2,0-28-9.2-28-25.7"/>
  <path class="st0" d="M531.5,15.7c0-6.7,5.1-11.6,11.6-11.6s11.8,4.9,11.8,11.6-5.1,11.6-11.8,11.6-11.6-5.1-11.6-11.6M534,40.8h18.4v83.6h-18.4V40.8Z"/>
  <path class="st0" d="M563.6,82.6c0-24.9,17.5-43.8,41.1-43.8s22.5,5.2,29.3,13.9v-12h18.4v83.6h-18.4v-12c-6.9,8.7-17,13.9-29.3,13.9-23.6,0-41.1-18.9-41.1-43.8M634.1,82.6c0-14.8-11-26.1-25.7-26.1s-25.9,11.3-25.9,26.1,11,26.1,25.9,26.1,25.7-11.3,25.7-26.1"/>
  <path class="st1" d="M78.2,89.5l10.2,14.6,3.6,5.1,14.3,20.4h0c.1.2.3.4.4.6,0,.1.2.2.3.4h0c2.5,3.3,6.4,5.1,10.3,5.1h20.7l-7.8-11.2-10.2-14.6-18.1-25.8-.2-.3c-2.8-3.8-7.3-5.8-11.8-5.3-2.1.2-4.2.9-6.1,2.2-3.2,2.1-5.1,5.4-5.6,8.9"/>
  <path class="st1" d="M91.3,78.4l-7.8,11.2-10.2,14.6-10.6,15.2-7.4,10.6h0c-.9.4-1.9.5-2.9.5-5.8,0-10.4-4.7-10.4-10.4v-10.3l3.5-5,.3-.4,14-20h0c.1-.2.3-.4.4-.6,0-.1.2-.2.3-.4h0c2.5-3.3,6.4-5.1,10.3-5.1h20.7Z"/>
  <path class="st1" d="M52.1,135.7H18.3C8.2,135.7,0,127.6,0,117.5V18.4C0,8.3,8.2.1,18.3.1h18.3v119.9c0,3.1.9,6.1,2.5,8.5,2.1,3.2,5.2,5.6,9,6.6,1.3.4,2.7.6,4.1.6"/>
  <path class="st1" d="M83.5,46.3l-10.2-14.6-3.6-5.1-14.3-20.4h0c-.1-.2-.3-.4-.4-.6,0-.1-.2-.2-.3-.4h0C52.2,1.9,48.3.1,44.4.1h-20.7l7.8,11.2,10.2,14.6,18.1,25.8.2.3c2.8,3.8,7.3,5.8,11.8,5.3,2.1-.2,4.2-.9,6.1-2.2,3.2-2.1,5.1-5.4,5.6-8.9"/>
  <path class="st1" d="M70.4,57.5l7.8-11.2,10.2-14.6,10.6-15.2,7.4-10.6h0c.9-.4,1.9-.5,2.9-.5,5.8,0,10.4,4.7,10.4,10.4v10.2l-3.5,5-.3.4-14,20h0c-.1.2-.3.4-.4.6,0,.1-.2.2-.3.4h0c-2.5,3.3-6.4,5.1-10.3,5.1h-20.7Z"/>
</svg>