<?xml version="1.0" encoding="UTF-8"?>
<svg id="Camada_1" xmlns="http://www.w3.org/2000/svg" xmlns:xlink="http://www.w3.org/1999/xlink" version="1.1" viewBox="0 0 657.4 145.6">
  <!-- Generator: Adobe Illustrator 29.5.1, SVG Export Plug-In . SVG Version: 2.1.0 Build 141)  -->
  <defs>
    <style>
      .st0 {
        fill: none;
      }

      .st1 {
        isolation: isolate;
      }

      .st2 {
        clip-path: url(#clippath-17);
      }

      .st3 {
        clip-path: url(#clippath-11);
      }

      .st4 {
        clip-path: url(#clippath-16);
      }

      .st5 {
        clip-path: url(#clippath-10);
      }

      .st6 {
        clip-path: url(#clippath-15);
      }

      .st7 {
        clip-path: url(#clippath-13);
      }

      .st8 {
        clip-path: url(#clippath-14);
      }

      .st9 {
        clip-path: url(#clippath-12);
      }

      .st10 {
        clip-path: url(#clippath-1);
      }

      .st11 {
        clip-path: url(#clippath-3);
      }

      .st12 {
        clip-path: url(#clippath-4);
      }

      .st13 {
        clip-path: url(#clippath-2);
      }

      .st14 {
        clip-path: url(#clippath-7);
      }

      .st15 {
        clip-path: url(#clippath-6);
      }

      .st16 {
        clip-path: url(#clippath-9);
      }

      .st17 {
        clip-path: url(#clippath-8);
      }

      .st18 {
        clip-path: url(#clippath-5);
      }

      .st19 {
        fill: #f0f0f0;
      }

      .st20 {
        clip-path: url(#clippath);
      }
    </style>
    <clipPath id="clippath">
      <path class="st0" d="M114.5,5c1.4,0,2.8.2,4.1.6,3.7,1,6.9,3.4,9,6.6,1.6,2.5,2.5,5.4,2.5,8.5v119.9h18.3c10.1,0,18.3-8.2,18.3-18.3V23.3c0-10.1-8.2-18.3-18.3-18.3h-33.9Z"/>
    </clipPath>
    <clipPath id="clippath-1">
      <rect class="st0" x="114.5" y="5" width="52.1" height="135.6"/>
    </clipPath>
    <clipPath id="clippath-2">
      <rect class="st0" x="114.5" y="5" width="52.1" height="135.6"/>
    </clipPath>
    <clipPath id="clippath-3">
      <path class="st0" d="M94.9,83.3c-2.1.2-4.2.9-6.1,2.2-3.2,2.1-5.1,5.4-5.6,8.9l10.2,14.6,3.6,5.1,14.3,20.4c0,.2.3.4.4.6,0,.1.2.2.3.4,2.5,3.3,6.4,5.1,10.3,5.1h20.7l-7.8-11.2-10.2-14.6-18.1-25.8-.2-.3c-2.5-3.5-6.5-5.4-10.6-5.4s-.8,0-1.2,0h0Z"/>
    </clipPath>
    <clipPath id="clippath-4">
      <rect class="st0" x="83.2" y="83.2" width="59.8" height="57.4"/>
    </clipPath>
    <clipPath id="clippath-5">
      <rect class="st0" x="83.2" y="83.2" width="59.8" height="57.4"/>
    </clipPath>
    <clipPath id="clippath-6">
      <path class="st0" d="M23.3,5C13.2,5,5,13.2,5,23.3v99.1c0,10.1,8.2,18.3,18.3,18.3h33.9c-1.4,0-2.8-.2-4.1-.6-3.7-1-6.9-3.4-9-6.6-1.6-2.5-2.5-5.4-2.5-8.5V5h-18.3Z"/>
    </clipPath>
    <clipPath id="clippath-7">
      <rect class="st0" x="5" y="5" width="52.1" height="135.6"/>
    </clipPath>
    <clipPath id="clippath-8">
      <rect class="st0" x="5" y="5" width="52.1" height="135.6"/>
    </clipPath>
    <clipPath id="clippath-9">
      <path class="st0" d="M28.6,5l7.8,11.2,10.2,14.6,18.1,25.8.2.3c2.8,3.8,7.3,5.8,11.8,5.3,2.1-.2,4.2-.9,6.1-2.2,3.2-2.1,5.1-5.4,5.6-8.9l-10.2-14.6-3.6-5.1-14.3-20.4c0-.2-.3-.4-.4-.6,0,0-.2-.2-.3-.4-2.5-3.3-6.4-5.1-10.3-5.1h-20.7Z"/>
    </clipPath>
    <clipPath id="clippath-10">
      <rect class="st0" x="28.6" y="5" width="59.8" height="57.7"/>
    </clipPath>
    <clipPath id="clippath-11">
      <rect class="st0" x="28.6" y="5" width="59.8" height="57.7"/>
    </clipPath>
    <clipPath id="clippath-12">
      <path class="st0" d="M111.6,10.6h0c0,0-7.4,10.8-7.4,10.8l-10.6,15.2-10.2,14.6-7.8,11.2h20.7c3.9,0,7.8-1.8,10.3-5.1,0,0,.2-.3.3-.4,0-.2.3-.4.4-.6l14-20,.3-.4,3.5-5v-10.2c0-5.8-4.7-10.4-10.4-10.4s-2,0-2.9.4h-.2Z"/>
    </clipPath>
    <clipPath id="clippath-13">
      <rect class="st0" x="75.4" y="10.2" width="49.5" height="52.1"/>
    </clipPath>
    <clipPath id="clippath-14">
      <rect class="st0" x="75.4" y="10.2" width="49.5" height="52.1"/>
    </clipPath>
    <clipPath id="clippath-15">
      <path class="st0" d="M75.5,83.2c-3.9,0-7.8,1.8-10.3,5.1,0,.1-.2.3-.3.4,0,.2-.3.4-.4.6l-14,20-.3.4-3.5,5v10.2c0,5.8,4.7,10.4,10.4,10.4s2-.1,2.9-.4c0-.1,7.4-10.8,7.4-10.8l10.6-15.2,10.2-14.6,7.8-11.2h-20.7.2Z"/>
    </clipPath>
    <clipPath id="clippath-16">
      <rect class="st0" x="46.7" y="83.2" width="49.5" height="52.1"/>
    </clipPath>
    <clipPath id="clippath-17">
      <rect class="st0" x="46.7" y="83.2" width="49.5" height="52.1"/>
    </clipPath>
  </defs>
  <polygon class="st19" points="245.9 16.1 270.2 16.1 307.4 80.2 344.6 16.1 368.7 16.1 368.7 129.2 349.2 129.2 349.2 44.5 312.8 107.4 301.6 107.4 265.4 44.5 265.4 129.2 245.9 129.2 245.9 16.1"/>
  <g>
    <path class="st19" d="M381.7,87.4c0-24.9,19.2-43.8,44.8-43.8s44.8,18.9,44.8,43.8-19.3,43.8-44.8,43.8-44.8-18.9-44.8-43.8M452.2,87.4c0-14.8-11-26.1-25.7-26.1s-25.9,11.3-25.9,26.1,11.1,26.1,25.9,26.1,25.7-11.3,25.7-26.1"/>
    <path class="st19" d="M486.6,103.5v-41.1h-14.1v-16.7h8.5c4.3,0,6.6-2.3,6.6-6.6v-16.1h17.4v22.6h20.7v16.7h-20.7v38.2c0,7.4,4.6,11.8,12.3,11.8h8.4v16.9h-11c-18.2,0-28-9.2-28-25.7"/>
    <path class="st19" d="M536.5,20.5c0-6.7,5.1-11.6,11.6-11.6s11.8,4.9,11.8,11.6-5.1,11.6-11.8,11.6-11.6-5.1-11.6-11.6M539,45.6h18.4v83.6h-18.4V45.6Z"/>
    <path class="st19" d="M568.6,87.4c0-24.9,17.5-43.8,41.2-43.8s22.5,5.2,29.3,13.9v-12h18.4v83.6h-18.4v-12c-6.9,8.7-17,13.9-29.3,13.9-23.6,0-41.2-18.9-41.2-43.8M639.1,87.4c0-14.8-11-26.1-25.7-26.1s-25.9,11.3-25.9,26.1,11,26.1,25.9,26.1,25.7-11.3,25.7-26.1"/>
  </g>
  <g class="st20">
    <g class="st10">
      <g class="st13">
        <image class="st1" width="109" height="282" transform="translate(114.3 4.8) scale(.5)" xlink:href="Prancheta 1_MOTIA-1.png"/>
      </g>
    </g>
  </g>
  <g class="st11">
    <g class="st12">
      <g class="st18">
        <image class="st1" width="123" height="120" transform="translate(83.2 82.9) scale(.5)" xlink:href="Prancheta 1_MOTIA-2.png"/>
      </g>
    </g>
  </g>
  <g class="st15">
    <g class="st14">
      <g class="st17">
        <image class="st1" width="110" height="282" transform="translate(5 5) scale(.5)" xlink:href="Prancheta 1_MOTIA-3.png"/>
      </g>
    </g>
  </g>
  <g class="st16">
    <g class="st5">
      <g class="st3">
        <image class="st1" width="125" height="120" transform="translate(28.3 4.9) scale(.5)" xlink:href="Prancheta 1_MOTIA-4.png"/>
      </g>
    </g>
  </g>
  <g class="st9">
    <g class="st7">
      <g class="st8">
        <image class="st1" width="103" height="109" transform="translate(75.4 9.7) scale(.5)" xlink:href="Prancheta 1_MOTIA-5.png"/>
      </g>
    </g>
  </g>
  <g class="st6">
    <g class="st4">
      <g class="st2">
        <image class="st1" width="103" height="109" transform="translate(46.7 83.1) scale(.5)" xlink:href="Prancheta 1_MOTIA-6.png"/>
      </g>
    </g>
  </g>
</svg>