<?xml version="1.0" encoding="UTF-8"?>
<svg id="Camada_1" data-name="Camada 1" xmlns="http://www.w3.org/2000/svg" viewBox="0 0 652.43 135.72">
  <defs>
    <style>
      .cls-1 {
        fill: #f0f0f0;
      }

      .cls-2 {
        fill: #2f7eff;
      }
    </style>
  </defs>
  <path class="cls-2" d="M109.51.14h33.9c10.08,0,18.25,8.17,18.25,18.25v99.08c0,10.08-8.17,18.25-18.25,18.25h-18.25V15.78c0-3.15-.93-6.07-2.53-8.52-2.06-3.18-5.25-5.56-9-6.58-1.31-.36-2.69-.55-4.12-.55Z"/>
  <g>
    <path class="cls-1" d="M240.89,11.31h24.26l37.21,64.1,37.21-64.1h24.1v113.12h-19.51V39.67l-36.39,62.95h-11.15l-36.23-62.95v84.76h-19.51V11.31Z"/>
    <path class="cls-1" d="M376.66,82.62c0-24.92,19.18-43.77,44.76-43.77s44.76,18.85,44.76,43.77-19.35,43.77-44.76,43.77-44.76-18.85-44.76-43.77ZM447.15,82.62c0-14.75-10.98-26.07-25.74-26.07s-25.9,11.31-25.9,26.07,11.15,26.07,25.9,26.07,25.74-11.31,25.74-26.07Z"/>
    <path class="cls-1" d="M481.61,98.69v-41.15h-14.1v-16.72h8.52c4.26,0,6.56-2.29,6.56-6.56v-16.07h17.38v22.62h20.66v16.72h-20.66v38.2c0,7.38,4.59,11.8,12.3,11.8h8.36v16.89h-10.98c-18.2,0-28.03-9.18-28.03-25.74Z"/>
    <path class="cls-1" d="M531.53,15.73c0-6.72,5.08-11.64,11.64-11.64s11.8,4.92,11.8,11.64-5.08,11.64-11.8,11.64-11.64-5.08-11.64-11.64ZM533.99,40.82h18.36v83.61h-18.36V40.82Z"/>
    <path class="cls-1" d="M563.58,82.62c0-24.92,17.54-43.77,41.15-43.77,12.3,0,22.46,5.25,29.35,13.93v-11.97h18.36v83.61h-18.36v-11.97c-6.89,8.69-17.05,13.94-29.35,13.94-23.61,0-41.15-18.85-41.15-43.77ZM634.07,82.62c0-14.75-10.98-26.07-25.74-26.07s-25.9,11.31-25.9,26.07,10.98,26.07,25.9,26.07,25.74-11.31,25.74-26.07Z"/>
  </g>
  <g>
    <polygon class="cls-2" points="171.71 1.63 175.14 1.63 175.14 9.91 176.95 9.91 176.95 1.63 180.36 1.63 180.36 0 171.71 0 171.71 1.63"/>
    <path class="cls-2" d="M190.27,0l-3.21,8.06h-.13l-3.25-8.06h-2.29v9.91h1.7v-5.49c0-.45-.04-1.24-.08-2.04.28.84.57,1.63.76,2.12l2.21,5.41h2.01l2.25-5.44c.2-.49.45-1.23.74-2.03-.04.82-.09,1.59-.09,2v5.47h1.67V0h-2.28Z"/>
  </g>
  <path class="cls-2" d="M78.18,89.53l10.24,14.63,3.56,5.09,14.25,20.36.03.04c.12.2.25.4.39.59.09.13.18.25.28.37h0c2.54,3.34,6.42,5.11,10.35,5.11h20.72l-7.83-11.18-10.23-14.61-18.08-25.82-.24-.35c-2.78-3.85-7.31-5.75-11.75-5.34-2.11.19-4.21.9-6.1,2.17-3.17,2.14-5.1,5.43-5.61,8.93Z"/>
  <path class="cls-2" d="M91.25,78.36l-7.83,11.18-10.23,14.61-10.64,15.2-7.43,10.62-.09.13c-.91.27-1.88.41-2.87.41-5.76,0-10.43-4.67-10.43-10.43v-10.25l3.5-4.99.28-.4,13.98-19.96.03-.04c.12-.2.25-.4.39-.59.09-.13.18-.25.28-.37h0c2.54-3.34,6.42-5.11,10.35-5.11h20.72Z"/>
  <path class="cls-2" d="M52.15,135.72H18.25c-10.08,0-18.25-8.17-18.25-18.25V18.39C0,8.31,8.17.14,18.25.14h18.25v119.94c0,3.15.93,6.07,2.53,8.52,2.06,3.18,5.25,5.56,9,6.58,1.31.36,2.69.55,4.12.55Z"/>
  <path class="cls-2" d="M83.48,46.33l-10.24-14.63-3.56-5.09-14.25-20.36-.03-.04c-.12-.2-.25-.4-.39-.59-.09-.13-.18-.25-.28-.37h0C52.16,1.91,48.28.14,44.35.14h-20.72l7.83,11.18,10.23,14.61,18.08,25.82.24.35c2.78,3.85,7.31,5.75,11.75,5.34,2.11-.19,4.21-.9,6.1-2.17,3.17-2.14,5.1-5.43,5.61-8.93Z"/>
  <path class="cls-2" d="M70.41,57.5l7.83-11.18,10.23-14.61,10.64-15.2,7.43-10.62.09-.13c.91-.27,1.88-.41,2.87-.41,5.76,0,10.43,4.67,10.43,10.43v10.25l-3.5,4.99-.28.4-13.98,19.96-.03.04c-.12.2-.25.4-.39.59-.09.13-.18.25-.28.37h0c-2.54,3.34-6.42,5.11-10.35,5.11h-20.72Z"/>
</svg>